:SAMPLES-PER-SECOND 30
:FULLY-SPECIFIED
:DEGREES
580
root  -2.4059 39.1486 -12.358 7.34958 74.4564 6.8681
RightUpLeg  2.15497 -6.00928 0.175026
RightLeg  15.4685 9.05223 0.385275
RightFoot  -16.4015 -0.389599 -6.30589
RightToes  2.21189e-009 0 -3.6325e-017
Spine  8.42054 -0.30367 6.94124
Spine1  3.95749 0.811092 -2.76454
HEad  -13.4928 6.96678 -5.38181
LeftShoulder1  0.00976221 3.47799 -31.7371
LeftArm  -0.82893 8.59806 -40.8808
LeftForeArm  19.2938 -18.7719 -4.77795
LeftHand  -0.0327536 3.04947 0.797543
RightShoulder  -0.549779 -5.12986 27.0338
RightArm  20.9381 3.45183 49.1182
RightForeArm  1.38091 26.9776 5.73663
RightHand  -0.645169 4.45651 -7.88029
LeftUpLeg  -20.5392 1.09866 2.812
LeftLeg  24.8313 -1.01394 -0.0878306
LeftFoot  -1.68993 0.485709 -5.61355
LeftToes  -3.01956e-010 3.07132e-011 1.04116e-011
581
root  -1.10449 39.0956 -12.203 8.46742 73.2978 8.12164
RightUpLeg  5.28812 -6.71228 -1.29256
RightLeg  13.5964 11.1291 0.396722
RightFoot  -17.2715 -0.425775 -5.95797
RightToes  2.21189e-009 0 -3.6325e-017
Spine  8.0118 -0.102796 6.29893
Spine1  4.01633 0.971724 -3.38174
HEad  -13.4554 7.68193 -5.22137
LeftShoulder1  -0.0296376 3.58188 -31.9141
LeftArm  -2.80432 9.3723 -40.2981
LeftForeArm  20.7412 -15.9299 -5.61751
LeftHand  -0.0575261 3.07297 2.16578
RightShoulder  -0.530937 -5.07396 26.9767
RightArm  20.7599 4.73104 49.5461
RightForeArm  2.16474 27.5203 5.82246
RightHand  -0.645038 4.93032 -7.5359
LeftUpLeg  -20.4938 1.90342 2.05053
LeftLeg  14.0861 -6.13036 -1.47215
LeftFoot  -1.4177 0.689289 -7.84865
LeftToes  -3.01956e-010 3.07132e-011 1.04116e-011
582
root  0.215675 38.9734 -12.0482 9.47018 72.4306 9.53235
RightUpLeg  8.61933 -6.92487 -2.72216
RightLeg  11.9894 12.3056 0.0265369
RightFoot  -18.3258 -0.458398 -5.48036
RightToes  2.21189e-009 0 -3.6325e-017
Spine  7.76107 0.0114667 5.2833
Spine1  4.25578 1.0789 -3.88093
HEad  -13.0405 8.25618 -4.78712
LeftShoulder1  -0.0225569 3.56243 -31.8228
LeftArm  -5.56755 10.1106 -40.0312
LeftForeArm  23.1379 -12.794 -6.24117
LeftHand  -0.0450551 3.95512 1.89476
RightShoulder  -0.428429 -4.79023 26.3719
RightArm  20.206 5.06534 50.3686
RightForeArm  1.96975 27.6111 5.8543
RightHand  -0.708858 5.18393 -8.07337
LeftUpLeg  -20.171 2.57681 1.0074
LeftLeg  5.603 -6.28267 -0.980822
LeftFoot  -1.93063 0.76755 -9.16978
LeftToes  -3.01956e-010 3.07132e-011 1.04116e-011
583
root  1.61556 38.7308 -11.9393 10.0894 71.8988 10.8589
RightUpLeg  11.6975 -6.47986 -4.08771
RightLeg  11.8503 12.5259 -0.225299
RightFoot  -19.9458 -0.477946 -4.56846
RightToes  2.21189e-009 0 -3.6325e-017
Spine  7.81883 0.0794208 5.15696
Spine1  4.33804 1.4641 -5.31655
HEad  -12.1472 8.25488 -4.27283
LeftShoulder1  0.0879928 3.26876 -31.2523
LeftArm  -7.61803 10.9067 -40.0733
LeftForeArm  26.1055 -9.93345 -6.44189
LeftHand  -0.0254126 4.6764 0.372535
RightShoulder  -0.543365 -5.11267 26.9963
RightArm  21.0197 5.36722 49.9507
RightForeArm  1.11305 27.243 5.81308
RightHand  -0.705938 4.90246 -8.24265
LeftUpLeg  -19.7549 2.57723 0.107774
LeftLeg  1.47794 0.804347 -1.17984
LeftFoot  -2.4488 0.784468 -9.77572
LeftToes  -3.01956e-010 3.07132e-011 1.04116e-011
584
root  3.12063 38.3558 -11.8424 10.2932 71.5151 11.7168
RightUpLeg  13.8725 -4.55401 -5.06561
RightLeg  13.8261 11.1425 0.292316
RightFoot  -21.993 -0.441985 -3.14168
RightToes  2.21189e-009 0 -3.6325e-017
Spine  7.33629 0.230817 4.78261
Spine1  4.77756 1.73249 -5.8739
HEad  -11.3185 8.04652 -3.7067
LeftShoulder1  0.0840122 3.27858 -31.144
LeftArm  -8.45469 11.7742 -39.8175
LeftForeArm  27.6107 -8.26261 -6.26093
LeftHand  -0.012922 4.26915 -1.25393
RightShoulder  -0.545241 -5.10996 27.1649
RightArm  21.1168 4.7842 49.6843
RightForeArm  1.20493 26.5012 5.63503
RightHand  -0.674503 4.6193 -8.09763
LeftUpLeg  -20.0368 2.40362 -1.25353
LeftLeg  3.14877 5.92692 -1.3738
LeftFoot  -0.859003 0.801618 -9.09317
LeftToes  -3.01956e-010 3.07132e-011 1.04116e-011
585
root  4.62618 38.042 -11.7111 10.2848 71.3517 12.8383
RightUpLeg  16.43 -0.289522 -5.27931
RightLeg  16.0102 7.76709 1.08513
RightFoot  -23.0217 -0.180931 -0.286541
RightToes  2.21189e-009 0 -3.6325e-017
Spine  7.42954 0.416451 3.46097
Spine1  5.20639 1.89832 -5.95839
HEad  -10.4582 7.8046 -3.30132
LeftShoulder1  0.0492883 3.37109 -31.3609
LeftArm  -8.72743 13.04 -39.3011
LeftForeArm  28.674 -7.53032 -6.07256
LeftHand  -0.0158489 4.73395 -2.03833
RightShoulder  -0.501355 -4.96798 27.4049
RightArm  22.4931 3.84086 49.044
RightForeArm  -0.302849 24.9464 5.33606
RightHand  -0.690766 5.10709 -7.93056
LeftUpLeg  -20.8482 2.76485 -3.41321
LeftLeg  9.51773 3.02427 -0.502429
LeftFoot  4.83438 0.263814 -2.07306
LeftToes  -3.01956e-010 3.07132e-011 1.04116e-011
586
root  6.16258 37.6784 -11.5571 10.767 71.1211 15.0113
RightUpLeg  17.9481 3.26245 -5.87899
RightLeg  21.6417 5.52532 2.36479
RightFoot  -23.4847 0.295205 4.25178
RightToes  2.21189e-009 0 -3.6325e-017
Spine  8.36402 0.824763 1.03825
Spine1  5.1091 1.84129 -4.80531
HEad  -9.54662 7.75826 -3.01991
LeftShoulder1  -0.0902367 3.7386 -32.365
LeftArm  -8.09269 13.9942 -38.1056
LeftForeArm  28.0339 -7.42187 -6.32104
LeftHand  -0.011352 4.63245 -2.3979
RightShoulder  -0.487379 -4.917 27.6191
RightArm  23.8937 2.88286 48.3858
RightForeArm  -1.14109 22.4318 5.05939
RightHand  -0.657898 5.22857 -7.47503
LeftUpLeg  -21.1371 3.91811 -5.61822
LeftLeg  16.8413 0.232323 0.163941
LeftFoot  7.45498 -0.350538 1.95859
LeftToes  -3.01956e-010 3.07132e-011 1.04116e-011
587
root  7.67926 37.4193 -11.422 13.2096 71.207 18.8077
RightUpLeg  16.746 2.61791 -8.41447
RightLeg  31.0313 6.78509 4.16537
RightFoot  -20.6438 0.660168 10.4353
RightToes  2.21189e-009 0 -3.6325e-017
Spine  8.59648 1.08443 -0.738966
Spine1  5.46542 1.89124 -4.9983
HEad  -8.50722 6.99249 -2.30888
LeftShoulder1  -0.127602 3.83097 -32.8866
LeftArm  -7.21306 13.7591 -37.2624
LeftForeArm  26.4541 -6.53288 -6.74507
LeftHand  -0.0276816 4.94581 -0.197175
RightShoulder  -0.588272 -5.17629 28.4028
RightArm  22.3214 2.23355 48.1123
RightForeArm  2.02057 18.0735 5.63114
RightHand  -0.569599 4.41219 -7.01687
LeftUpLeg  -20.8348 2.62998 -7.3882
LeftLeg  23.4971 1.24102 0.958475
LeftFoot  3.21549 -0.467875 3.51561
LeftToes  -3.01956e-010 3.07132e-011 1.04116e-011
588
root  9.09704 37.4207 -11.3399 13.3784 70.764 19.8547
RightUpLeg  12.6886 2.14126 -10.554
RightLeg  42.127 6.8526 6.3252
RightFoot  -11.0957 -0.0118592 13.7883
RightToes  2.21189e-009 0 -3.6325e-017
Spine  8.95304 1.29813 -0.403157
Spine1  5.41891 2.38718 -6.86039
HEad  -8.27359 6.55675 -1.78098
LeftShoulder1  -0.0749943 3.69914 -32.2983
LeftArm  -7.27311 13.6924 -37.6046
LeftForeArm  26.1742 -6.0239 -6.71435
LeftHand  -0.0313297 4.71402 1.36255
RightShoulder  -0.670602 -5.39786 28.6999
RightArm  16.4308 1.38614 48.816
RightForeArm  6.86037 12.2421 6.9352
RightHand  -0.638399 4.50317 -7.7802
LeftUpLeg  -18.9614 2.95639 -8.4016
LeftLeg  26.2501 1.6949 1.25586
LeftFoot  -0.222401 -0.471732 4.83436
LeftToes  -3.01956e-010 3.07132e-011 1.04116e-011
589
root  10.413 37.5251 -11.2603 14.0468 69.6982 21.2635
RightUpLeg  6.50219 3.10059 -12.1505
RightLeg  53.681 5.65951 7.77978
RightFoot  1.43254 -1.08461 9.57441
RightToes  2.21189e-009 0 -3.6325e-017
Spine  9.64844 1.69065 -0.985355
Spine1  4.6417 2.72669 -7.49241
HEad  -7.71661 6.43068 -2.3624
LeftShoulder1  -0.0181755 3.55098 -32.3968
LeftArm  -7.38927 13.5233 -37.6703
LeftForeArm  26.093 -6.35716 -6.68482
LeftHand  -0.0322416 4.91847 1.07035
RightShoulder  -0.569896 -5.14066 28.0522
RightArm  13.1347 0.260757 49.6326
RightForeArm  8.44413 7.66475 7.38886
RightHand  -0.596519 3.49899 -8.01377
LeftUpLeg  -16.4048 3.69793 -9.60826
LeftLeg  26.9434 2.19067 1.56382
LeftFoot  -2.73503 -0.371907 5.12722
LeftToes  -3.01956e-010 3.07132e-011 1.04116e-011
